<mxfile host="app.diagrams.net" agent="Mozilla/5.0 (Macintosh; Intel Mac OS X 10_15_7) AppleWebKit/537.36 (KHTML, like Gecko) Chrome/134.0.0.0 Safari/537.36 Edg/134.0.0.0" version="26.1.1">
  <diagram id="C5RBs43oDa-KdzZeNtuy" name="domain_diagram">
    <mxGraphModel dx="1696" dy="1101" grid="1" gridSize="10" guides="1" tooltips="1" connect="1" arrows="1" fold="1" page="1" pageScale="1" pageWidth="827" pageHeight="1169" math="0" shadow="0">
      <root>
        <mxCell id="WIyWlLk6GJQsqaUBKTNV-0" />
        <mxCell id="WIyWlLk6GJQsqaUBKTNV-1" parent="WIyWlLk6GJQsqaUBKTNV-0" />
        <mxCell id="jpi6r0LHXFeuh9NWJ52m-64" value="FrontendController" style="swimlane;fontStyle=1;align=center;verticalAlign=top;childLayout=stackLayout;horizontal=1;startSize=38;horizontalStack=0;resizeParent=1;resizeParentMax=0;resizeLast=0;collapsible=0;marginBottom=0;" vertex="1" parent="WIyWlLk6GJQsqaUBKTNV-1">
          <mxGeometry x="509" y="177" width="169" height="57" as="geometry" />
        </mxCell>
        <mxCell id="jpi6r0LHXFeuh9NWJ52m-65" style="line;strokeWidth=1;fillColor=none;align=left;verticalAlign=middle;spacingTop=-1;spacingLeft=3;spacingRight=3;rotatable=0;labelPosition=right;points=[];portConstraint=eastwest;strokeColor=inherit;" vertex="1" parent="jpi6r0LHXFeuh9NWJ52m-64">
          <mxGeometry y="38" width="169" height="19" as="geometry" />
        </mxCell>
        <mxCell id="jpi6r0LHXFeuh9NWJ52m-66" value="EventView" style="swimlane;fontStyle=1;align=center;verticalAlign=top;childLayout=stackLayout;horizontal=1;startSize=38;horizontalStack=0;resizeParent=1;resizeParentMax=0;resizeLast=0;collapsible=0;marginBottom=0;" vertex="1" parent="WIyWlLk6GJQsqaUBKTNV-1">
          <mxGeometry x="757" y="20" width="103" height="57" as="geometry" />
        </mxCell>
        <mxCell id="jpi6r0LHXFeuh9NWJ52m-67" style="line;strokeWidth=1;fillColor=none;align=left;verticalAlign=middle;spacingTop=-1;spacingLeft=3;spacingRight=3;rotatable=0;labelPosition=right;points=[];portConstraint=eastwest;strokeColor=inherit;" vertex="1" parent="jpi6r0LHXFeuh9NWJ52m-66">
          <mxGeometry y="38" width="103" height="19" as="geometry" />
        </mxCell>
        <mxCell id="jpi6r0LHXFeuh9NWJ52m-68" value="TicketView" style="swimlane;fontStyle=1;align=center;verticalAlign=top;childLayout=stackLayout;horizontal=1;startSize=38;horizontalStack=0;resizeParent=1;resizeParentMax=0;resizeLast=0;collapsible=0;marginBottom=0;" vertex="1" parent="WIyWlLk6GJQsqaUBKTNV-1">
          <mxGeometry x="910" y="20" width="107" height="57" as="geometry" />
        </mxCell>
        <mxCell id="jpi6r0LHXFeuh9NWJ52m-69" style="line;strokeWidth=1;fillColor=none;align=left;verticalAlign=middle;spacingTop=-1;spacingLeft=3;spacingRight=3;rotatable=0;labelPosition=right;points=[];portConstraint=eastwest;strokeColor=inherit;" vertex="1" parent="jpi6r0LHXFeuh9NWJ52m-68">
          <mxGeometry y="38" width="107" height="19" as="geometry" />
        </mxCell>
        <mxCell id="jpi6r0LHXFeuh9NWJ52m-70" value="PaymentView" style="swimlane;fontStyle=1;align=center;verticalAlign=top;childLayout=stackLayout;horizontal=1;startSize=38;horizontalStack=0;resizeParent=1;resizeParentMax=0;resizeLast=0;collapsible=0;marginBottom=0;" vertex="1" parent="WIyWlLk6GJQsqaUBKTNV-1">
          <mxGeometry x="1066" y="20" width="125" height="57" as="geometry" />
        </mxCell>
        <mxCell id="jpi6r0LHXFeuh9NWJ52m-71" style="line;strokeWidth=1;fillColor=none;align=left;verticalAlign=middle;spacingTop=-1;spacingLeft=3;spacingRight=3;rotatable=0;labelPosition=right;points=[];portConstraint=eastwest;strokeColor=inherit;" vertex="1" parent="jpi6r0LHXFeuh9NWJ52m-70">
          <mxGeometry y="38" width="125" height="19" as="geometry" />
        </mxCell>
        <mxCell id="jpi6r0LHXFeuh9NWJ52m-72" value="OrderStatusView" style="swimlane;fontStyle=1;align=center;verticalAlign=top;childLayout=stackLayout;horizontal=1;startSize=38;horizontalStack=0;resizeParent=1;resizeParentMax=0;resizeLast=0;collapsible=0;marginBottom=0;" vertex="1" parent="WIyWlLk6GJQsqaUBKTNV-1">
          <mxGeometry x="1241" y="20" width="149" height="57" as="geometry" />
        </mxCell>
        <mxCell id="jpi6r0LHXFeuh9NWJ52m-73" style="line;strokeWidth=1;fillColor=none;align=left;verticalAlign=middle;spacingTop=-1;spacingLeft=3;spacingRight=3;rotatable=0;labelPosition=right;points=[];portConstraint=eastwest;strokeColor=inherit;" vertex="1" parent="jpi6r0LHXFeuh9NWJ52m-72">
          <mxGeometry y="38" width="149" height="19" as="geometry" />
        </mxCell>
        <mxCell id="jpi6r0LHXFeuh9NWJ52m-74" value="EventService" style="swimlane;fontStyle=1;align=center;verticalAlign=top;childLayout=stackLayout;horizontal=1;startSize=38;horizontalStack=0;resizeParent=1;resizeParentMax=0;resizeLast=0;collapsible=0;marginBottom=0;" vertex="1" parent="WIyWlLk6GJQsqaUBKTNV-1">
          <mxGeometry x="89" y="333" width="122" height="57" as="geometry" />
        </mxCell>
        <mxCell id="jpi6r0LHXFeuh9NWJ52m-75" style="line;strokeWidth=1;fillColor=none;align=left;verticalAlign=middle;spacingTop=-1;spacingLeft=3;spacingRight=3;rotatable=0;labelPosition=right;points=[];portConstraint=eastwest;strokeColor=inherit;" vertex="1" parent="jpi6r0LHXFeuh9NWJ52m-74">
          <mxGeometry y="38" width="122" height="19" as="geometry" />
        </mxCell>
        <mxCell id="jpi6r0LHXFeuh9NWJ52m-76" value="TicketService" style="swimlane;fontStyle=1;align=center;verticalAlign=top;childLayout=stackLayout;horizontal=1;startSize=38;horizontalStack=0;resizeParent=1;resizeParentMax=0;resizeLast=0;collapsible=0;marginBottom=0;" vertex="1" parent="WIyWlLk6GJQsqaUBKTNV-1">
          <mxGeometry x="218" y="757" width="126" height="57" as="geometry" />
        </mxCell>
        <mxCell id="jpi6r0LHXFeuh9NWJ52m-77" style="line;strokeWidth=1;fillColor=none;align=left;verticalAlign=middle;spacingTop=-1;spacingLeft=3;spacingRight=3;rotatable=0;labelPosition=right;points=[];portConstraint=eastwest;strokeColor=inherit;" vertex="1" parent="jpi6r0LHXFeuh9NWJ52m-76">
          <mxGeometry y="38" width="126" height="19" as="geometry" />
        </mxCell>
        <mxCell id="jpi6r0LHXFeuh9NWJ52m-78" value="PaymentService" style="swimlane;fontStyle=1;align=center;verticalAlign=top;childLayout=stackLayout;horizontal=1;startSize=38;horizontalStack=0;resizeParent=1;resizeParentMax=0;resizeLast=0;collapsible=0;marginBottom=0;" vertex="1" parent="WIyWlLk6GJQsqaUBKTNV-1">
          <mxGeometry x="365" y="333" width="144" height="57" as="geometry" />
        </mxCell>
        <mxCell id="jpi6r0LHXFeuh9NWJ52m-79" style="line;strokeWidth=1;fillColor=none;align=left;verticalAlign=middle;spacingTop=-1;spacingLeft=3;spacingRight=3;rotatable=0;labelPosition=right;points=[];portConstraint=eastwest;strokeColor=inherit;" vertex="1" parent="jpi6r0LHXFeuh9NWJ52m-78">
          <mxGeometry y="38" width="144" height="19" as="geometry" />
        </mxCell>
        <mxCell id="jpi6r0LHXFeuh9NWJ52m-80" value="OrderService" style="swimlane;fontStyle=1;align=center;verticalAlign=top;childLayout=stackLayout;horizontal=1;startSize=38;horizontalStack=0;resizeParent=1;resizeParentMax=0;resizeLast=0;collapsible=0;marginBottom=0;" vertex="1" parent="WIyWlLk6GJQsqaUBKTNV-1">
          <mxGeometry x="635" y="333" width="123" height="57" as="geometry" />
        </mxCell>
        <mxCell id="jpi6r0LHXFeuh9NWJ52m-81" style="line;strokeWidth=1;fillColor=none;align=left;verticalAlign=middle;spacingTop=-1;spacingLeft=3;spacingRight=3;rotatable=0;labelPosition=right;points=[];portConstraint=eastwest;strokeColor=inherit;" vertex="1" parent="jpi6r0LHXFeuh9NWJ52m-80">
          <mxGeometry y="38" width="123" height="19" as="geometry" />
        </mxCell>
        <mxCell id="jpi6r0LHXFeuh9NWJ52m-82" value="ReportService" style="swimlane;fontStyle=1;align=center;verticalAlign=top;childLayout=stackLayout;horizontal=1;startSize=38;horizontalStack=0;resizeParent=1;resizeParentMax=0;resizeLast=0;collapsible=0;marginBottom=0;" vertex="1" parent="WIyWlLk6GJQsqaUBKTNV-1">
          <mxGeometry x="941" y="333" width="130" height="57" as="geometry" />
        </mxCell>
        <mxCell id="jpi6r0LHXFeuh9NWJ52m-83" style="line;strokeWidth=1;fillColor=none;align=left;verticalAlign=middle;spacingTop=-1;spacingLeft=3;spacingRight=3;rotatable=0;labelPosition=right;points=[];portConstraint=eastwest;strokeColor=inherit;" vertex="1" parent="jpi6r0LHXFeuh9NWJ52m-82">
          <mxGeometry y="38" width="130" height="19" as="geometry" />
        </mxCell>
        <mxCell id="jpi6r0LHXFeuh9NWJ52m-84" value="UserService" style="swimlane;fontStyle=1;align=center;verticalAlign=top;childLayout=stackLayout;horizontal=1;startSize=38;horizontalStack=0;resizeParent=1;resizeParentMax=0;resizeLast=0;collapsible=0;marginBottom=0;" vertex="1" parent="WIyWlLk6GJQsqaUBKTNV-1">
          <mxGeometry x="1503" y="333" width="113" height="57" as="geometry" />
        </mxCell>
        <mxCell id="jpi6r0LHXFeuh9NWJ52m-85" style="line;strokeWidth=1;fillColor=none;align=left;verticalAlign=middle;spacingTop=-1;spacingLeft=3;spacingRight=3;rotatable=0;labelPosition=right;points=[];portConstraint=eastwest;strokeColor=inherit;" vertex="1" parent="jpi6r0LHXFeuh9NWJ52m-84">
          <mxGeometry y="38" width="113" height="19" as="geometry" />
        </mxCell>
        <mxCell id="jpi6r0LHXFeuh9NWJ52m-86" value="TicketFactory" style="swimlane;fontStyle=1;align=center;verticalAlign=top;childLayout=stackLayout;horizontal=1;startSize=38;horizontalStack=0;resizeParent=1;resizeParentMax=0;resizeLast=0;collapsible=0;marginBottom=0;" vertex="1" parent="WIyWlLk6GJQsqaUBKTNV-1">
          <mxGeometry x="168" y="535" width="127" height="57" as="geometry" />
        </mxCell>
        <mxCell id="jpi6r0LHXFeuh9NWJ52m-87" style="line;strokeWidth=1;fillColor=none;align=left;verticalAlign=middle;spacingTop=-1;spacingLeft=3;spacingRight=3;rotatable=0;labelPosition=right;points=[];portConstraint=eastwest;strokeColor=inherit;" vertex="1" parent="jpi6r0LHXFeuh9NWJ52m-86">
          <mxGeometry y="38" width="127" height="19" as="geometry" />
        </mxCell>
        <mxCell id="jpi6r0LHXFeuh9NWJ52m-88" value="UserFactory" style="swimlane;fontStyle=1;align=center;verticalAlign=top;childLayout=stackLayout;horizontal=1;startSize=38;horizontalStack=0;resizeParent=1;resizeParentMax=0;resizeLast=0;collapsible=0;marginBottom=0;" vertex="1" parent="WIyWlLk6GJQsqaUBKTNV-1">
          <mxGeometry x="1550" y="535" width="114" height="57" as="geometry" />
        </mxCell>
        <mxCell id="jpi6r0LHXFeuh9NWJ52m-89" style="line;strokeWidth=1;fillColor=none;align=left;verticalAlign=middle;spacingTop=-1;spacingLeft=3;spacingRight=3;rotatable=0;labelPosition=right;points=[];portConstraint=eastwest;strokeColor=inherit;" vertex="1" parent="jpi6r0LHXFeuh9NWJ52m-88">
          <mxGeometry y="38" width="114" height="19" as="geometry" />
        </mxCell>
        <mxCell id="jpi6r0LHXFeuh9NWJ52m-90" value="EventDAO" style="swimlane;fontStyle=1;align=center;verticalAlign=top;childLayout=stackLayout;horizontal=1;startSize=38;horizontalStack=0;resizeParent=1;resizeParentMax=0;resizeLast=0;collapsible=0;marginBottom=0;" vertex="1" parent="WIyWlLk6GJQsqaUBKTNV-1">
          <mxGeometry x="20" y="535" width="98" height="57" as="geometry" />
        </mxCell>
        <mxCell id="jpi6r0LHXFeuh9NWJ52m-91" style="line;strokeWidth=1;fillColor=none;align=left;verticalAlign=middle;spacingTop=-1;spacingLeft=3;spacingRight=3;rotatable=0;labelPosition=right;points=[];portConstraint=eastwest;strokeColor=inherit;" vertex="1" parent="jpi6r0LHXFeuh9NWJ52m-90">
          <mxGeometry y="38" width="98" height="19" as="geometry" />
        </mxCell>
        <mxCell id="jpi6r0LHXFeuh9NWJ52m-92" value="TicketDAO" style="swimlane;fontStyle=1;align=center;verticalAlign=top;childLayout=stackLayout;horizontal=1;startSize=38;horizontalStack=0;resizeParent=1;resizeParentMax=0;resizeLast=0;collapsible=0;marginBottom=0;" vertex="1" parent="WIyWlLk6GJQsqaUBKTNV-1">
          <mxGeometry x="230" y="935" width="102" height="57" as="geometry" />
        </mxCell>
        <mxCell id="jpi6r0LHXFeuh9NWJ52m-93" style="line;strokeWidth=1;fillColor=none;align=left;verticalAlign=middle;spacingTop=-1;spacingLeft=3;spacingRight=3;rotatable=0;labelPosition=right;points=[];portConstraint=eastwest;strokeColor=inherit;" vertex="1" parent="jpi6r0LHXFeuh9NWJ52m-92">
          <mxGeometry y="38" width="102" height="19" as="geometry" />
        </mxCell>
        <mxCell id="jpi6r0LHXFeuh9NWJ52m-94" value="OrderDAO" style="swimlane;fontStyle=1;align=center;verticalAlign=top;childLayout=stackLayout;horizontal=1;startSize=38;horizontalStack=0;resizeParent=1;resizeParentMax=0;resizeLast=0;collapsible=0;marginBottom=0;" vertex="1" parent="WIyWlLk6GJQsqaUBKTNV-1">
          <mxGeometry x="414" y="535" width="99" height="57" as="geometry" />
        </mxCell>
        <mxCell id="jpi6r0LHXFeuh9NWJ52m-95" style="line;strokeWidth=1;fillColor=none;align=left;verticalAlign=middle;spacingTop=-1;spacingLeft=3;spacingRight=3;rotatable=0;labelPosition=right;points=[];portConstraint=eastwest;strokeColor=inherit;" vertex="1" parent="jpi6r0LHXFeuh9NWJ52m-94">
          <mxGeometry y="38" width="99" height="19" as="geometry" />
        </mxCell>
        <mxCell id="jpi6r0LHXFeuh9NWJ52m-96" value="UserDAO" style="swimlane;fontStyle=1;align=center;verticalAlign=top;childLayout=stackLayout;horizontal=1;startSize=38;horizontalStack=0;resizeParent=1;resizeParentMax=0;resizeLast=0;collapsible=0;marginBottom=0;" vertex="1" parent="WIyWlLk6GJQsqaUBKTNV-1">
          <mxGeometry x="1411" y="535" width="89" height="57" as="geometry" />
        </mxCell>
        <mxCell id="jpi6r0LHXFeuh9NWJ52m-97" style="line;strokeWidth=1;fillColor=none;align=left;verticalAlign=middle;spacingTop=-1;spacingLeft=3;spacingRight=3;rotatable=0;labelPosition=right;points=[];portConstraint=eastwest;strokeColor=inherit;" vertex="1" parent="jpi6r0LHXFeuh9NWJ52m-96">
          <mxGeometry y="38" width="89" height="19" as="geometry" />
        </mxCell>
        <mxCell id="jpi6r0LHXFeuh9NWJ52m-98" value="SalesReportDAO" style="swimlane;fontStyle=1;align=center;verticalAlign=top;childLayout=stackLayout;horizontal=1;startSize=38;horizontalStack=0;resizeParent=1;resizeParentMax=0;resizeLast=0;collapsible=0;marginBottom=0;" vertex="1" parent="WIyWlLk6GJQsqaUBKTNV-1">
          <mxGeometry x="934" y="535" width="144" height="57" as="geometry" />
        </mxCell>
        <mxCell id="jpi6r0LHXFeuh9NWJ52m-99" style="line;strokeWidth=1;fillColor=none;align=left;verticalAlign=middle;spacingTop=-1;spacingLeft=3;spacingRight=3;rotatable=0;labelPosition=right;points=[];portConstraint=eastwest;strokeColor=inherit;" vertex="1" parent="jpi6r0LHXFeuh9NWJ52m-98">
          <mxGeometry y="38" width="144" height="19" as="geometry" />
        </mxCell>
        <mxCell id="jpi6r0LHXFeuh9NWJ52m-100" value="DataEncryptor" style="swimlane;fontStyle=1;align=center;verticalAlign=top;childLayout=stackLayout;horizontal=1;startSize=38;horizontalStack=0;resizeParent=1;resizeParentMax=0;resizeLast=0;collapsible=0;marginBottom=0;" vertex="1" parent="WIyWlLk6GJQsqaUBKTNV-1">
          <mxGeometry x="1440" y="20" width="131" height="57" as="geometry" />
        </mxCell>
        <mxCell id="jpi6r0LHXFeuh9NWJ52m-101" style="line;strokeWidth=1;fillColor=none;align=left;verticalAlign=middle;spacingTop=-1;spacingLeft=3;spacingRight=3;rotatable=0;labelPosition=right;points=[];portConstraint=eastwest;strokeColor=inherit;" vertex="1" parent="jpi6r0LHXFeuh9NWJ52m-100">
          <mxGeometry y="38" width="131" height="19" as="geometry" />
        </mxCell>
        <mxCell id="jpi6r0LHXFeuh9NWJ52m-102" value="AuthenticationManager" style="swimlane;fontStyle=1;align=center;verticalAlign=top;childLayout=stackLayout;horizontal=1;startSize=38;horizontalStack=0;resizeParent=1;resizeParentMax=0;resizeLast=0;collapsible=0;marginBottom=0;" vertex="1" parent="WIyWlLk6GJQsqaUBKTNV-1">
          <mxGeometry x="1488" y="177" width="198" height="57" as="geometry" />
        </mxCell>
        <mxCell id="jpi6r0LHXFeuh9NWJ52m-103" style="line;strokeWidth=1;fillColor=none;align=left;verticalAlign=middle;spacingTop=-1;spacingLeft=3;spacingRight=3;rotatable=0;labelPosition=right;points=[];portConstraint=eastwest;strokeColor=inherit;" vertex="1" parent="jpi6r0LHXFeuh9NWJ52m-102">
          <mxGeometry y="38" width="198" height="19" as="geometry" />
        </mxCell>
        <mxCell id="jpi6r0LHXFeuh9NWJ52m-104" value="Logger" style="swimlane;fontStyle=1;align=center;verticalAlign=top;childLayout=stackLayout;horizontal=1;startSize=38;horizontalStack=0;resizeParent=1;resizeParentMax=0;resizeLast=0;collapsible=0;marginBottom=0;" vertex="1" parent="WIyWlLk6GJQsqaUBKTNV-1">
          <mxGeometry x="1621" y="20" width="74" height="57" as="geometry" />
        </mxCell>
        <mxCell id="jpi6r0LHXFeuh9NWJ52m-105" style="line;strokeWidth=1;fillColor=none;align=left;verticalAlign=middle;spacingTop=-1;spacingLeft=3;spacingRight=3;rotatable=0;labelPosition=right;points=[];portConstraint=eastwest;strokeColor=inherit;" vertex="1" parent="jpi6r0LHXFeuh9NWJ52m-104">
          <mxGeometry y="38" width="74" height="19" as="geometry" />
        </mxCell>
        <mxCell id="jpi6r0LHXFeuh9NWJ52m-106" value="EmailService" style="swimlane;fontStyle=1;align=center;verticalAlign=top;childLayout=stackLayout;horizontal=1;startSize=38;horizontalStack=0;resizeParent=1;resizeParentMax=0;resizeLast=0;collapsible=0;marginBottom=0;" vertex="1" parent="WIyWlLk6GJQsqaUBKTNV-1">
          <mxGeometry x="1184" y="333" width="120" height="57" as="geometry" />
        </mxCell>
        <mxCell id="jpi6r0LHXFeuh9NWJ52m-107" style="line;strokeWidth=1;fillColor=none;align=left;verticalAlign=middle;spacingTop=-1;spacingLeft=3;spacingRight=3;rotatable=0;labelPosition=right;points=[];portConstraint=eastwest;strokeColor=inherit;" vertex="1" parent="jpi6r0LHXFeuh9NWJ52m-106">
          <mxGeometry y="38" width="120" height="19" as="geometry" />
        </mxCell>
        <mxCell id="jpi6r0LHXFeuh9NWJ52m-108" value="OrderSubject" style="swimlane;fontStyle=1;align=center;verticalAlign=top;childLayout=stackLayout;horizontal=1;startSize=36.888888888888886;horizontalStack=0;resizeParent=1;resizeParentMax=0;resizeLast=0;collapsible=0;marginBottom=0;" vertex="1" parent="WIyWlLk6GJQsqaUBKTNV-1">
          <mxGeometry x="563" y="490" width="320" height="155.88888888888889" as="geometry" />
        </mxCell>
        <mxCell id="jpi6r0LHXFeuh9NWJ52m-109" style="line;strokeWidth=1;fillColor=none;align=left;verticalAlign=middle;spacingTop=-1;spacingLeft=3;spacingRight=3;rotatable=0;labelPosition=right;points=[];portConstraint=eastwest;strokeColor=inherit;" vertex="1" parent="jpi6r0LHXFeuh9NWJ52m-108">
          <mxGeometry y="36.888888888888886" width="320" height="8" as="geometry" />
        </mxCell>
        <mxCell id="jpi6r0LHXFeuh9NWJ52m-110" value="+attach(observer: OrderObserver)" style="text;strokeColor=none;fillColor=none;align=left;verticalAlign=top;spacingLeft=4;spacingRight=4;overflow=hidden;rotatable=0;points=[[0,0.5],[1,0.5]];portConstraint=eastwest;" vertex="1" parent="jpi6r0LHXFeuh9NWJ52m-108">
          <mxGeometry y="44.888888888888886" width="320" height="37" as="geometry" />
        </mxCell>
        <mxCell id="jpi6r0LHXFeuh9NWJ52m-111" value="+detach(observer: OrderObserver)" style="text;strokeColor=none;fillColor=none;align=left;verticalAlign=top;spacingLeft=4;spacingRight=4;overflow=hidden;rotatable=0;points=[[0,0.5],[1,0.5]];portConstraint=eastwest;" vertex="1" parent="jpi6r0LHXFeuh9NWJ52m-108">
          <mxGeometry y="81.88888888888889" width="320" height="37" as="geometry" />
        </mxCell>
        <mxCell id="jpi6r0LHXFeuh9NWJ52m-112" value="+notify()" style="text;strokeColor=none;fillColor=none;align=left;verticalAlign=top;spacingLeft=4;spacingRight=4;overflow=hidden;rotatable=0;points=[[0,0.5],[1,0.5]];portConstraint=eastwest;" vertex="1" parent="jpi6r0LHXFeuh9NWJ52m-108">
          <mxGeometry y="118.88888888888889" width="320" height="37" as="geometry" />
        </mxCell>
        <mxCell id="jpi6r0LHXFeuh9NWJ52m-113" value="OrderObserver" style="swimlane;fontStyle=1;align=center;verticalAlign=top;childLayout=stackLayout;horizontal=1;startSize=47.2;horizontalStack=0;resizeParent=1;resizeParentMax=0;resizeLast=0;collapsible=0;marginBottom=0;" vertex="1" parent="WIyWlLk6GJQsqaUBKTNV-1">
          <mxGeometry x="800" y="736" width="240" height="102.2" as="geometry" />
        </mxCell>
        <mxCell id="jpi6r0LHXFeuh9NWJ52m-114" style="line;strokeWidth=1;fillColor=none;align=left;verticalAlign=middle;spacingTop=-1;spacingLeft=3;spacingRight=3;rotatable=0;labelPosition=right;points=[];portConstraint=eastwest;strokeColor=inherit;" vertex="1" parent="jpi6r0LHXFeuh9NWJ52m-113">
          <mxGeometry y="47.2" width="240" height="8" as="geometry" />
        </mxCell>
        <mxCell id="jpi6r0LHXFeuh9NWJ52m-115" value="+update(order: Order)" style="text;strokeColor=none;fillColor=none;align=left;verticalAlign=top;spacingLeft=4;spacingRight=4;overflow=hidden;rotatable=0;points=[[0,0.5],[1,0.5]];portConstraint=eastwest;" vertex="1" parent="jpi6r0LHXFeuh9NWJ52m-113">
          <mxGeometry y="55.2" width="240" height="47" as="geometry" />
        </mxCell>
        <mxCell id="jpi6r0LHXFeuh9NWJ52m-116" value="EmailNotifier" style="swimlane;fontStyle=1;align=center;verticalAlign=top;childLayout=stackLayout;horizontal=1;startSize=47.2;horizontalStack=0;resizeParent=1;resizeParentMax=0;resizeLast=0;collapsible=0;marginBottom=0;" vertex="1" parent="WIyWlLk6GJQsqaUBKTNV-1">
          <mxGeometry x="1127" y="514" width="234" height="102.2" as="geometry" />
        </mxCell>
        <mxCell id="jpi6r0LHXFeuh9NWJ52m-117" style="line;strokeWidth=1;fillColor=none;align=left;verticalAlign=middle;spacingTop=-1;spacingLeft=3;spacingRight=3;rotatable=0;labelPosition=right;points=[];portConstraint=eastwest;strokeColor=inherit;" vertex="1" parent="jpi6r0LHXFeuh9NWJ52m-116">
          <mxGeometry y="47.2" width="234" height="8" as="geometry" />
        </mxCell>
        <mxCell id="jpi6r0LHXFeuh9NWJ52m-118" value="+update(order: Order)" style="text;strokeColor=none;fillColor=none;align=left;verticalAlign=top;spacingLeft=4;spacingRight=4;overflow=hidden;rotatable=0;points=[[0,0.5],[1,0.5]];portConstraint=eastwest;" vertex="1" parent="jpi6r0LHXFeuh9NWJ52m-116">
          <mxGeometry y="55.2" width="234" height="47" as="geometry" />
        </mxCell>
        <mxCell id="jpi6r0LHXFeuh9NWJ52m-119" value="uses" style="curved=1;startArrow=none;endArrow=open;endSize=12;exitX=0;exitY=0.67;entryX=0.5;entryY=0;rounded=0;" edge="1" parent="WIyWlLk6GJQsqaUBKTNV-1" source="jpi6r0LHXFeuh9NWJ52m-64" target="jpi6r0LHXFeuh9NWJ52m-74">
          <mxGeometry relative="1" as="geometry">
            <Array as="points">
              <mxPoint x="150" y="297" />
            </Array>
          </mxGeometry>
        </mxCell>
        <mxCell id="jpi6r0LHXFeuh9NWJ52m-120" value="uses" style="curved=1;startArrow=none;endArrow=open;endSize=12;exitX=0;exitY=0.79;entryX=0.66;entryY=0;rounded=0;" edge="1" parent="WIyWlLk6GJQsqaUBKTNV-1" source="jpi6r0LHXFeuh9NWJ52m-64" target="jpi6r0LHXFeuh9NWJ52m-76">
          <mxGeometry relative="1" as="geometry">
            <Array as="points">
              <mxPoint x="330" y="297" />
              <mxPoint x="330" y="700" />
            </Array>
          </mxGeometry>
        </mxCell>
        <mxCell id="jpi6r0LHXFeuh9NWJ52m-121" value="uses" style="curved=1;startArrow=none;endArrow=open;endSize=12;exitX=0;exitY=0.99;entryX=0.5;entryY=0;rounded=0;" edge="1" parent="WIyWlLk6GJQsqaUBKTNV-1" source="jpi6r0LHXFeuh9NWJ52m-64" target="jpi6r0LHXFeuh9NWJ52m-78">
          <mxGeometry relative="1" as="geometry">
            <Array as="points">
              <mxPoint x="437" y="297" />
            </Array>
          </mxGeometry>
        </mxCell>
        <mxCell id="jpi6r0LHXFeuh9NWJ52m-122" value="uses" style="curved=1;startArrow=none;endArrow=open;endSize=12;exitX=0.83;exitY=0.99;entryX=0.5;entryY=0;rounded=0;" edge="1" parent="WIyWlLk6GJQsqaUBKTNV-1" source="jpi6r0LHXFeuh9NWJ52m-64" target="jpi6r0LHXFeuh9NWJ52m-80">
          <mxGeometry relative="1" as="geometry">
            <Array as="points">
              <mxPoint x="696" y="297" />
            </Array>
          </mxGeometry>
        </mxCell>
        <mxCell id="jpi6r0LHXFeuh9NWJ52m-123" value="uses" style="curved=1;startArrow=none;endArrow=open;endSize=12;exitX=1;exitY=0.69;entryX=0.5;entryY=0;rounded=0;" edge="1" parent="WIyWlLk6GJQsqaUBKTNV-1" source="jpi6r0LHXFeuh9NWJ52m-64" target="jpi6r0LHXFeuh9NWJ52m-82">
          <mxGeometry relative="1" as="geometry">
            <Array as="points">
              <mxPoint x="1006" y="297" />
            </Array>
          </mxGeometry>
        </mxCell>
        <mxCell id="jpi6r0LHXFeuh9NWJ52m-124" value="uses" style="curved=1;startArrow=none;endArrow=open;endSize=12;exitX=1;exitY=0.61;entryX=0;entryY=0.33;rounded=0;" edge="1" parent="WIyWlLk6GJQsqaUBKTNV-1" source="jpi6r0LHXFeuh9NWJ52m-64" target="jpi6r0LHXFeuh9NWJ52m-84">
          <mxGeometry relative="1" as="geometry">
            <Array as="points">
              <mxPoint x="1258" y="297" />
            </Array>
          </mxGeometry>
        </mxCell>
        <mxCell id="jpi6r0LHXFeuh9NWJ52m-125" value="uses" style="curved=1;startArrow=none;endArrow=open;endSize=12;exitX=0.15;exitY=1;entryX=0.5;entryY=-0.01;rounded=0;" edge="1" parent="WIyWlLk6GJQsqaUBKTNV-1" source="jpi6r0LHXFeuh9NWJ52m-74" target="jpi6r0LHXFeuh9NWJ52m-90">
          <mxGeometry relative="1" as="geometry">
            <Array as="points">
              <mxPoint x="69" y="453" />
            </Array>
          </mxGeometry>
        </mxCell>
        <mxCell id="jpi6r0LHXFeuh9NWJ52m-126" value="uses" style="curved=1;startArrow=none;endArrow=open;endSize=12;exitX=0.5;exitY=1;entryX=0.5;entryY=-0.01;rounded=0;" edge="1" parent="WIyWlLk6GJQsqaUBKTNV-1" source="jpi6r0LHXFeuh9NWJ52m-76" target="jpi6r0LHXFeuh9NWJ52m-92">
          <mxGeometry relative="1" as="geometry">
            <Array as="points" />
          </mxGeometry>
        </mxCell>
        <mxCell id="jpi6r0LHXFeuh9NWJ52m-127" value="uses" style="curved=1;startArrow=none;endArrow=open;endSize=12;exitX=0.5;exitY=1;entryX=0.41;entryY=-0.01;rounded=0;" edge="1" parent="WIyWlLk6GJQsqaUBKTNV-1" source="jpi6r0LHXFeuh9NWJ52m-78" target="jpi6r0LHXFeuh9NWJ52m-94">
          <mxGeometry relative="1" as="geometry">
            <Array as="points">
              <mxPoint x="437" y="453" />
            </Array>
          </mxGeometry>
        </mxCell>
        <mxCell id="jpi6r0LHXFeuh9NWJ52m-128" value="uses" style="curved=1;startArrow=none;endArrow=open;endSize=12;exitX=0;exitY=0.94;entryX=0.86;entryY=-0.01;rounded=0;" edge="1" parent="WIyWlLk6GJQsqaUBKTNV-1" source="jpi6r0LHXFeuh9NWJ52m-80" target="jpi6r0LHXFeuh9NWJ52m-94">
          <mxGeometry relative="1" as="geometry">
            <Array as="points">
              <mxPoint x="566" y="453" />
            </Array>
          </mxGeometry>
        </mxCell>
        <mxCell id="jpi6r0LHXFeuh9NWJ52m-129" value="uses" style="curved=1;startArrow=none;endArrow=open;endSize=12;exitX=0.5;exitY=1;entryX=0.5;entryY=-0.01;rounded=0;" edge="1" parent="WIyWlLk6GJQsqaUBKTNV-1" source="jpi6r0LHXFeuh9NWJ52m-82" target="jpi6r0LHXFeuh9NWJ52m-98">
          <mxGeometry relative="1" as="geometry">
            <Array as="points" />
          </mxGeometry>
        </mxCell>
        <mxCell id="jpi6r0LHXFeuh9NWJ52m-130" value="uses" style="curved=1;startArrow=none;endArrow=open;endSize=12;exitX=0.01;exitY=1;entryX=0.5;entryY=-0.01;rounded=0;" edge="1" parent="WIyWlLk6GJQsqaUBKTNV-1" source="jpi6r0LHXFeuh9NWJ52m-84" target="jpi6r0LHXFeuh9NWJ52m-96">
          <mxGeometry relative="1" as="geometry">
            <Array as="points">
              <mxPoint x="1456" y="453" />
            </Array>
          </mxGeometry>
        </mxCell>
        <mxCell id="jpi6r0LHXFeuh9NWJ52m-131" value="uses" style="curved=1;startArrow=none;endArrow=open;endSize=12;exitX=0.86;exitY=1;entryX=0.5;entryY=-0.01;rounded=0;" edge="1" parent="WIyWlLk6GJQsqaUBKTNV-1" source="jpi6r0LHXFeuh9NWJ52m-74" target="jpi6r0LHXFeuh9NWJ52m-86">
          <mxGeometry relative="1" as="geometry">
            <Array as="points">
              <mxPoint x="231" y="453" />
            </Array>
          </mxGeometry>
        </mxCell>
        <mxCell id="jpi6r0LHXFeuh9NWJ52m-132" value="uses" style="curved=1;startArrow=none;endArrow=open;endSize=12;exitX=0.5;exitY=1;entryX=0.36;entryY=-0.01;rounded=0;" edge="1" parent="WIyWlLk6GJQsqaUBKTNV-1" source="jpi6r0LHXFeuh9NWJ52m-84" target="jpi6r0LHXFeuh9NWJ52m-88">
          <mxGeometry relative="1" as="geometry">
            <Array as="points">
              <mxPoint x="1560" y="453" />
            </Array>
          </mxGeometry>
        </mxCell>
        <mxCell id="jpi6r0LHXFeuh9NWJ52m-133" value="uses" style="curved=1;startArrow=none;endArrow=open;endSize=12;exitX=0.5;exitY=1;entryX=0.28;entryY=-0.01;rounded=0;" edge="1" parent="WIyWlLk6GJQsqaUBKTNV-1" source="jpi6r0LHXFeuh9NWJ52m-100" target="jpi6r0LHXFeuh9NWJ52m-102">
          <mxGeometry relative="1" as="geometry">
            <Array as="points">
              <mxPoint x="1506" y="140" />
            </Array>
          </mxGeometry>
        </mxCell>
        <mxCell id="jpi6r0LHXFeuh9NWJ52m-134" value="uses" style="curved=1;startArrow=none;endArrow=open;endSize=12;exitX=0.51;exitY=1;entryX=0.69;entryY=-0.01;rounded=0;" edge="1" parent="WIyWlLk6GJQsqaUBKTNV-1" source="jpi6r0LHXFeuh9NWJ52m-104" target="jpi6r0LHXFeuh9NWJ52m-102">
          <mxGeometry relative="1" as="geometry">
            <Array as="points">
              <mxPoint x="1658" y="140" />
            </Array>
          </mxGeometry>
        </mxCell>
        <mxCell id="jpi6r0LHXFeuh9NWJ52m-135" value="uses" style="curved=1;startArrow=none;endArrow=open;endSize=12;exitX=0.5;exitY=1;entryX=0.5;entryY=0;rounded=0;" edge="1" parent="WIyWlLk6GJQsqaUBKTNV-1" source="jpi6r0LHXFeuh9NWJ52m-106" target="jpi6r0LHXFeuh9NWJ52m-116">
          <mxGeometry relative="1" as="geometry">
            <Array as="points" />
          </mxGeometry>
        </mxCell>
        <mxCell id="jpi6r0LHXFeuh9NWJ52m-136" value="uses" style="curved=1;startArrow=none;endArrow=open;endSize=12;exitX=0.62;exitY=1;entryX=0.5;entryY=0;rounded=0;" edge="1" parent="WIyWlLk6GJQsqaUBKTNV-1" source="jpi6r0LHXFeuh9NWJ52m-80" target="jpi6r0LHXFeuh9NWJ52m-108">
          <mxGeometry relative="1" as="geometry">
            <Array as="points">
              <mxPoint x="723" y="453" />
            </Array>
          </mxGeometry>
        </mxCell>
        <mxCell id="jpi6r0LHXFeuh9NWJ52m-137" value="notifies" style="curved=1;startArrow=none;endArrow=open;endSize=12;exitX=0.09;exitY=1;entryX=0;entryY=0.25;rounded=0;" edge="1" parent="WIyWlLk6GJQsqaUBKTNV-1" source="jpi6r0LHXFeuh9NWJ52m-108" target="jpi6r0LHXFeuh9NWJ52m-113">
          <mxGeometry relative="1" as="geometry">
            <Array as="points">
              <mxPoint x="537" y="700" />
            </Array>
          </mxGeometry>
        </mxCell>
        <mxCell id="jpi6r0LHXFeuh9NWJ52m-138" value="implements" style="curved=1;startArrow=none;endArrow=open;endSize=12;exitX=0.5;exitY=1;entryX=1;entryY=0.21;rounded=0;" edge="1" parent="WIyWlLk6GJQsqaUBKTNV-1" source="jpi6r0LHXFeuh9NWJ52m-116" target="jpi6r0LHXFeuh9NWJ52m-113">
          <mxGeometry relative="1" as="geometry">
            <Array as="points">
              <mxPoint x="1244" y="700" />
            </Array>
          </mxGeometry>
        </mxCell>
        <mxCell id="jpi6r0LHXFeuh9NWJ52m-139" value="Factory Pattern" style="curved=1;dashed=1;startArrow=none;endArrow=open;endSize=12;exitX=0.5;exitY=0.99;entryX=0.33;entryY=0;rounded=0;" edge="1" parent="WIyWlLk6GJQsqaUBKTNV-1" source="jpi6r0LHXFeuh9NWJ52m-86" target="jpi6r0LHXFeuh9NWJ52m-76">
          <mxGeometry relative="1" as="geometry">
            <Array as="points">
              <mxPoint x="231" y="700" />
            </Array>
          </mxGeometry>
        </mxCell>
        <mxCell id="jpi6r0LHXFeuh9NWJ52m-140" value="Factory Pattern" style="curved=1;dashed=1;startArrow=none;endArrow=open;endSize=12;exitX=0.64;exitY=-0.01;entryX=0.95;entryY=1;rounded=0;" edge="1" parent="WIyWlLk6GJQsqaUBKTNV-1" source="jpi6r0LHXFeuh9NWJ52m-88" target="jpi6r0LHXFeuh9NWJ52m-84">
          <mxGeometry relative="1" as="geometry">
            <Array as="points">
              <mxPoint x="1655" y="453" />
            </Array>
          </mxGeometry>
        </mxCell>
        <mxCell id="jpi6r0LHXFeuh9NWJ52m-141" value="Singleton Pattern" style="curved=1;dashed=1;startArrow=none;endArrow=open;endSize=12;exitX=0.5;exitY=0.99;entryX=0.63;entryY=0;rounded=0;" edge="1" parent="WIyWlLk6GJQsqaUBKTNV-1" source="jpi6r0LHXFeuh9NWJ52m-102" target="jpi6r0LHXFeuh9NWJ52m-84">
          <mxGeometry relative="1" as="geometry">
            <Array as="points">
              <mxPoint x="1587" y="297" />
            </Array>
          </mxGeometry>
        </mxCell>
        <mxCell id="jpi6r0LHXFeuh9NWJ52m-142" value="Observer Pattern" style="curved=1;dashed=1;startArrow=none;endArrow=open;endSize=12;exitX=0.94;exitY=1;entryX=0.5;entryY=0;rounded=0;" edge="1" parent="WIyWlLk6GJQsqaUBKTNV-1" source="jpi6r0LHXFeuh9NWJ52m-108" target="jpi6r0LHXFeuh9NWJ52m-113">
          <mxGeometry relative="1" as="geometry">
            <Array as="points">
              <mxPoint x="920" y="700" />
            </Array>
          </mxGeometry>
        </mxCell>
      </root>
    </mxGraphModel>
  </diagram>
</mxfile>
